{"title":"The.Transporter.Refueled.2015.HDCAM.HQMIC.XVID.AC3.HQ.Hive-CM8","uid":12466426,"size":1505848217,"categoryP":"video","categoryS":"movies","magnet":"?xt=urn:btih:0643f42cb0749b07b15eb9d4432c29667edfc61e&amp;dn=The.Transporter.Refueled.2015.HDCAM.HQMIC.XVID.AC3.HQ.Hive-CM8&amp;tr=udp%3A%2F%2Ftracker.openbittorrent.com%3A80&amp;tr=udp%3A%2F%2Fopen.demonii.com%3A1337&amp;tr=udp%3A%2F%2Ftracker.coppersurfer.tk%3A6969&amp;tr=udp%3A%2F%2Fexodus.desync.com%3A6969","seeders":9,"leechers":7,"uploader":"TvTeam","files":4,"time":1442857401,"description":"------------------------------------------------------------------------\n\n &lt;a href=&quot; https://www.torrenting.com&quot; rel=&quot;nofollow&quot; target=&quot;_NEW&quot;&gt; https://www.torrenting.com&lt;/a&gt;\n\nSign up is OPEN - for time being. Come and have fun.\n\n------------------------------------------------------------------------[center][img]http://img540.imageshack.us/img540/8789/ljwaLR.jpg[/img]\n\n \n[color=blue][size=4][b]The.Transporter.Refueled.2015.HDCAM.HQMIC.XVID.AC3.HQ.Hive-CM8[/b][/size][/color]\n\nThx Hive\n\nCM8 Doing It Right The First Time\n\nSources:\n\nVideo: Russian/Unknown\nAudio: HQ-Stereo Mic Cadance\nthx\t\n\nEncode:\n\ngot a nice stereo mic from cadance, no laughing, coughing,munching or any kind of sidenoise, very nice and clear voices\nfor the video i dont know who the source is from, got unknown cam, mrg, a russian,french and spanish, which all looked the same to me\nthe russian came out last had higher bitrate and less pixelation the perspective was already fixed too, so i went with that video as source.\nso thx to all involved\nfixed contrast brightness relation along with colouring, blurred the pixelation away and gained some sharpness back again.\npixelation is gone now video is nice\nnotice there were some subs missing for foreign parts took them from the halo cam which had them in the cam\nand hardcoded them into my video.\n\nits as good as it gets and def enjoyable like this\naudio as mentioned very nice, lipsynced to my video\nwill do me till web-dl\nenjoy\n\nVideo: 720x304 @bitrate 1900 2pass\nAudio: English AC3 2.0 Stereo Mic\nSample: yes included\nSubs: yes hardcoded for foreign parts only\n\nPS:\nNeed Audio and Video for Mazerunner, anyone?\n\n\n &lt;a href=&quot;\nhttp://www.imdb.com/title/tt2938956/&quot; rel=&quot;nofollow&quot; target=&quot;_NEW&quot;&gt;\nhttp://www.imdb.com/title/tt2938956/&lt;/a&gt;\n\n\nGeneral\nComplete name                  : The.Transporter.Refueled.2015.HDCAM.HQMIC.XVID.AC3.HQ.Hive-CM8.avi\nFormat                         : AVI\nFormat/Info                    : Audio Video Interleave\nFile size                      : 1.38 GiB\nDuration                       : 1h 31mn\nOverall bit rate               : 2 162 Kbps\nWriting application            : Nandub v1.0rc2\nWriting library                : Nandub build 1853/release\n\nVideo\nID                             : 0\nFormat                         : MPEG-4 Visual\nFormat profile                 : Advanced Simple@L5\nFormat settings, BVOP          : 2\nFormat settings, QPel          : Yes\nFormat settings, GMC           : No warppoints\nFormat settings, Matrix        : Default (H.263)\nMuxing mode                    : Packed bitstream\nCodec ID                       : XVID\nCodec ID/Hint                  : XviD\nDuration                       : 1h 31mn\nBit rate                       : 1 900 Kbps\nWidth                          : 720 pixels\nHeight                         : 304 pixels\nDisplay aspect ratio           : 2.35:1\nFrame rate                     : 25.000 fps\nColor space                    : YUV\nChroma subsampling             : 4:2:0\nBit depth                      : 8 bits\nScan type                      : Progressive\nCompression mode               : Lossy\nBits/(Pixel*Frame)             : 0.347\nStream size                    : 1.21 GiB (88%)\nWriting library                : XviD 1.2.1 (UTC 2008-12-04)\n\nAudio\nID                             : 1\nFormat                         : AC-3\nFormat/Info                    : Audio Coding 3\nMode extension                 : CM (complete main)\nFormat settings, Endianness    : Big\nCodec ID                       : 2000\nDuration                       : 1h 30mn\nBit rate mode                  : Constant\nBit rate                       : 256 Kbps\nChannel(s)                     : 2 channels\nChannel positions              : Front: L R\nSampling rate                  : 48.0 KHz\nBit depth                      : 16 bits\nCompression mode               : Lossy\nStream size                    : 165 MiB (12%)\nAlignment                      : Split accross interleaves\nInterleave, duration           : 41 ms (1.01 video frame)\nInterleave, preload duration   : 500 ms\n\n\nScreens \n\n[img]http://img661.imageshack.us/img661/4875/Ocz0uT.png[/img]\n[img]http://img661.imageshack.us/img661/7255/axnpHl.png[/img]\n[img]http://img673.imageshack.us/img673/1651/E4aFSj.png[/img]\n[img]http://img673.imageshack.us/img673/8503/Ak4IgV.png[/img]\n[img]http://img911.imageshack.us/img911/9058/2hJjp3.png[/img]\n\n\n\nPlot\n\nIn the south of France, former special-ops mercenary Frank Martin enters into a game of chess with \na femme-fatale and her three sidekicks who are looking for revenge against a sinister Russian kingpin.\n\nCast\n\nEd Skrein        ... Frank Martin\nRay Stevenson    ... Frank Senior\nLoan Chabanol \t ... Anna\nGabriella Wright ... Gina \n\n\n\nGreetz\n\nSugarB,iNCOMiNG,Izzy,MenaceIISociety,jiinx,SiMPLE,CherryBomb\nranbailey,ViSiON,YanKeeS,COPYxRIGHT,THC,VAiN,ACAB,DRs\nLKRG,Kingstoner,ACAB,SiMPLE,TiTAN\nUnevano,BigVik,Rapeseed,SAFC,goldadvance,KaN1vE,Pinnz,Wayne,HiGH\nSeeN,jtr,Limey,ICONiK,TED,smittyman,rkofan,mrtoke09 (ya whinging old man here ya go lol )\nMr Hive\n\n\nLOOKING FOR ANYTHING YOU WANT TO LOOK AND SOUND BETTER\n\nCOME FIND US WE DONT BITE \n&lt;a class=&quot;__cf_email__&quot; href=&quot;/cdn-cgi/l/email-protection&quot; data-cfemail=&quot;591a146119312c2a313438303577343c&quot;&gt;[email&amp;#160;protected]&lt;/a&gt;&lt;script data-cfhash='f9e31' type=&quot;text/javascript&quot;&gt;\n/* &lt;![CDATA[ */!function(){try{var t=&quot;currentScript&quot;in document?document.currentScript:function(){for(var t=document.getElementsByTagName(&quot;script&quot;),e=t.length;e--;)if(t[e].getAttribute(&quot;data-cfhash&quot;))return t[e]}();if(t&amp;&amp;t.previousSibling){var e,r,n,i,c=t.previousSibling,a=c.getAttribute(&quot;data-cfemail&quot;);if(a){for(e=&quot;&quot;,r=parseInt(a.substr(0,2),16),n=2;a.length-n;n+=2)i=parseInt(a.substr(n,2),16)^r,e+=String.fromCharCode(i);e=document.createTextNode(e),c.parentNode.replaceChild(e,c)}t.parentNode.removeChild(t);}}catch(u){}}()/* ]]&gt; */&lt;/script&gt;[/center]","torrent":{"xt":"urn:btih:0643f42cb0749b07b15eb9d4432c29667edfc61e","amp;dn":"The.Transporter.Refueled.2015.HDCAM.HQMIC.XVID.AC3.HQ.Hive-CM8","amp;tr":["udp%3A%2F%2Ftracker.openbittorrent.com%3A80","udp%3A%2F%2Fopen.demonii.com%3A1337","udp%3A%2F%2Ftracker.coppersurfer.tk%3A6969","udp%3A%2F%2Fexodus.desync.com%3A6969"],"infoHash":"0643f42cb0749b07b15eb9d4432c29667edfc61e","infoHashBuffer":{"type":"Buffer","data":[6,67,244,44,176,116,155,7,177,94,185,212,67,44,41,102,126,223,198,30]},"announce":[],"urlList":[]}}